<?xml version="1.0" encoding="UTF-8" standalone="no"?><svg xmlns="http://www.w3.org/2000/svg" xmlns:xlink="http://www.w3.org/1999/xlink" contentScriptType="application/ecmascript" contentStyleType="text/css" height="165px" preserveAspectRatio="none" style="width:1326px;height:165px;background:#FFFFFF;" version="1.1" viewBox="0 0 1326 165" width="1326px" zoomAndPan="magnify"><defs><filter height="300%" id="fwkci6ge5bted" width="300%" x="-1" y="-1"><feGaussianBlur result="blurOut" stdDeviation="2.0"/><feColorMatrix in="blurOut" result="blurOut2" type="matrix" values="0 0 0 0 0 0 0 0 0 0 0 0 0 0 0 0 0 0 .4 0"/><feOffset dx="4.0" dy="4.0" in="blurOut2" result="blurOut3"/><feBlend in="SourceGraphic" in2="blurOut3" mode="normal"/></filter></defs><g><!--MD5=[42b84df9df2a76dbfc6d5e807efd7eaf]
entity Eduardo--><ellipse cx="35" cy="88.18" fill="#FEFECE" filter="url(#fwkci6ge5bted)" rx="8" ry="8" style="stroke:#A80036;stroke-width:1.5;"/><path d="M35,96.18 L35,123.18 M22,104.18 L48,104.18 M35,123.18 L22,138.18 M35,123.18 L48,138.18 " fill="none" filter="url(#fwkci6ge5bted)" style="stroke:#A80036;stroke-width:1.5;"/><text fill="#000000" font-family="sans-serif" font-size="14" lengthAdjust="spacing" textLength="58" x="6" y="156.6751">Eduardo</text><ellipse cx="1153.113" cy="119.3026" fill="#FEFECE" filter="url(#fwkci6ge5bted)" rx="66.113" ry="15.6226" style="stroke:#A80036;stroke-width:1.5;"/><text fill="#000000" font-family="sans-serif" font-size="14" lengthAdjust="spacing" textLength="82" x="1109.113" y="123.0502">7. JavaScript</text><ellipse cx="1001.1079" cy="119.3816" fill="#FEFECE" filter="url(#fwkci6ge5bted)" rx="51.1079" ry="14.7016" style="stroke:#A80036;stroke-width:1.5;"/><text fill="#000000" font-family="sans-serif" font-size="14" lengthAdjust="spacing" textLength="55" x="970.6079" y="123.1292">6. HTML</text><ellipse cx="850.2353" cy="119.0271" fill="#FEFECE" filter="url(#fwkci6ge5bted)" rx="64.7353" ry="15.3471" style="stroke:#A80036;stroke-width:1.5;"/><text fill="#000000" font-family="sans-serif" font-size="14" lengthAdjust="spacing" textLength="78" x="808.2353" y="122.7746">5. Java POO</text><ellipse cx="680.0634" cy="119.0927" fill="#FEFECE" filter="url(#fwkci6ge5bted)" rx="70.0634" ry="16.4127" style="stroke:#A80036;stroke-width:1.5;"/><text fill="#000000" font-family="sans-serif" font-size="14" lengthAdjust="spacing" textLength="93" x="630.5634" y="122.8402">4. Java Basico</text><ellipse cx="508.92" cy="119.164" fill="#FEFECE" filter="url(#fwkci6ge5bted)" rx="65.42" ry="15.484" style="stroke:#A80036;stroke-width:1.5;"/><text fill="#000000" font-family="sans-serif" font-size="14" lengthAdjust="spacing" textLength="80" x="465.92" y="122.9116">3. PHP POO</text><ellipse cx="336.8049" cy="119.241" fill="#FEFECE" filter="url(#fwkci6ge5bted)" rx="70.8049" ry="16.561" style="stroke:#A80036;stroke-width:1.5;"/><text fill="#000000" font-family="sans-serif" font-size="14" lengthAdjust="spacing" textLength="95" x="286.3049" y="122.9885">2. PHP Basico</text><ellipse cx="165.113" cy="119.3026" fill="#FEFECE" filter="url(#fwkci6ge5bted)" rx="66.113" ry="15.6226" style="stroke:#A80036;stroke-width:1.5;"/><text fill="#000000" font-family="sans-serif" font-size="14" lengthAdjust="spacing" textLength="82" x="121.113" y="123.0502">1. Algoritmo</text><!--MD5=[5e54b5181dcdc475ef9cff0b104cc5a7]
entity Finish--><rect fill="#FEFECE" filter="url(#fwkci6ge5bted)" height="36.2969" style="stroke:#A80036;stroke-width:1.5;" width="60" x="1254" y="101.18"/><text fill="#000000" font-family="sans-serif" font-size="14" lengthAdjust="spacing" textLength="40" x="1264" y="124.1751">Finish</text><!--MD5=[e1dd4daa41886c2bd0b78bf24a8a9dca]
link Eduardo to 7. JavaScript--><path d="M62.01,78.51 C72.21,66.62 84.93,55.1 99.5,48.68 C196.4,6 951.53,16.8 1052.5,48.68 C1084.43,58.76 1115.02,83.03 1133.89,100.26 " fill="none" id="Eduardo-to-7. JavaScript" style="stroke:#A80036;stroke-width:1.0;"/><polygon fill="#A80036" points="1137.97,104.05,1134.0845,95,1134.3015,100.6527,1128.6488,100.8696,1137.97,104.05" style="stroke:#A80036;stroke-width:1.0;"/><!--MD5=[82ec7b9e8f5a912dda55595257b47c5b]
link Eduardo to 6. HTML--><path d="M62.01,78.51 C72.21,66.62 84.93,55.1 99.5,48.68 C182.37,12.18 829.19,18.32 914.5,48.68 C943.69,59.07 970.16,83.98 985.92,101.23 " fill="none" id="Eduardo-to-6. HTML" style="stroke:#A80036;stroke-width:1.0;"/><polygon fill="#A80036" points="989.31,105,986.2625,95.6345,985.9652,101.2835,980.3161,100.9862,989.31,105" style="stroke:#A80036;stroke-width:1.0;"/><!--MD5=[52753ed72ff13c7745a04992a71284e0]
link Eduardo to 5. Java POO--><path d="M62.01,78.51 C72.21,66.62 84.93,55.1 99.5,48.68 C165.7,19.52 681.58,26.74 750.5,48.68 C782.2,58.77 812.46,83.03 831.12,100.27 " fill="none" id="Eduardo-to-5. Java POO" style="stroke:#A80036;stroke-width:1.0;"/><polygon fill="#A80036" points="835.15,104.05,831.3377,94.9689,831.509,100.6232,825.8547,100.7945,835.15,104.05" style="stroke:#A80036;stroke-width:1.0;"/><!--MD5=[61dbbdfb54067bcd065883a0106515e4]
link Eduardo to 4. Java Basico--><path d="M62.01,78.51 C72.21,66.62 84.93,55.1 99.5,48.68 C196.1,6.13 473.49,18.04 574.5,48.68 C607.31,58.63 639.21,82.54 659.19,99.75 " fill="none" id="Eduardo-to-4. Java Basico" style="stroke:#A80036;stroke-width:1.0;"/><polygon fill="#A80036" points="663.03,103.1,658.8884,94.1643,659.2662,99.8085,653.622,100.1863,663.03,103.1" style="stroke:#A80036;stroke-width:1.0;"/><!--MD5=[3ff6be41d27ce054901883addf895ff6]
link Eduardo to 3. PHP POO--><path d="M62.01,78.51 C72.21,66.62 84.93,55.1 99.5,48.68 C162.34,21 343.02,28 408.5,48.68 C440.43,58.76 471.02,83.03 489.89,100.26 " fill="none" id="Eduardo-to-3. PHP POO" style="stroke:#A80036;stroke-width:1.0;"/><polygon fill="#A80036" points="493.97,104.05,490.0845,95,490.3015,100.6527,484.6488,100.8696,493.97,104.05" style="stroke:#A80036;stroke-width:1.0;"/><!--MD5=[32e21969c1078f4be5155d0a5e36a65d]
link Eduardo to 2. PHP Basico--><path d="M62.01,78.51 C72.21,66.62 84.93,55.1 99.5,48.68 C153.19,25.03 175.36,31.65 231.5,48.68 C264.31,58.63 296.21,82.54 316.19,99.75 " fill="none" id="Eduardo-to-2. PHP Basico" style="stroke:#A80036;stroke-width:1.0;"/><polygon fill="#A80036" points="320.03,103.1,315.8884,94.1643,316.2662,99.8085,310.622,100.1863,320.03,103.1" style="stroke:#A80036;stroke-width:1.0;"/><!--MD5=[dbbd471c9f35c79fae234ca74b92ae09]
link Eduardo to 1. Algoritmo--><path d="M64.2,119.18 C74.03,119.18 83.87,119.18 93.71,119.18 " fill="none" id="Eduardo-to-1. Algoritmo" style="stroke:#A80036;stroke-width:1.0;"/><polygon fill="#A80036" points="98.85,119.18,89.85,115.18,93.85,119.18,89.85,123.18,98.85,119.18" style="stroke:#A80036;stroke-width:1.0;"/><!--MD5=[80f92dc34c4ef4d8a973686c8db688ad]
@startuml
actor Eduardo

Eduardo -right-> (7. JavaScript)
Eduardo -right-> (6. HTML)
Eduardo -right-> (5. Java POO)
Eduardo -right-> (4. Java Basico)
Eduardo -right-> (3. PHP POO)
Eduardo -right-> (2. PHP Basico)
Eduardo -right-> (1. Algoritmo)

agent Finish
@enduml

PlantUML version 1.2021.16(Wed Dec 08 17:25:22 UTC 2021)
(GPL source distribution)
Java Runtime: OpenJDK Runtime Environment
JVM: OpenJDK 64-Bit Server VM
Default Encoding: UTF-8
Language: en
Country: US
--></g></svg>